<svg xmlns="http://www.w3.org/2000/svg" width="640" height="400" viewBox="0 0 640 400">
<style>
.bg{fill:#0D0C0B}
.draw{fill:none;stroke:#F7F6F3;stroke-width:8;stroke-linecap:square;stroke-dasharray:1;stroke-dashoffset:1;animation:draw 2.4s cubic-bezier(0.16,1,0.3,1) .15s forwards, drawfade 1s ease .25s forwards}
.fill{opacity:0;animation:fadein 1.1s ease-out 1.7s forwards}
.laurel-stem{fill:none;stroke:#F7F6F3;stroke-width:6;stroke-linecap:round;stroke-dasharray:1;stroke-dashoffset:1;animation:draw 1.6s cubic-bezier(0.16,1,0.3,1) .9s forwards}
.leaf{opacity:0;animation:fadein .7s ease-out forwards}
.laurel{animation:float 7s ease-in-out infinite}
.speck{opacity:0;animation:twinkle 4.2s ease-in-out infinite}
.mu{opacity:.25;animation:wave 5.5s ease-in-out infinite}
.glow{opacity:.09;transform-box:fill-box;transform-origin:center;animation:breathe 7s ease-in-out infinite alternate}
@keyframes draw{to{stroke-dashoffset:0}}
@keyframes drawfade{to{stroke-opacity:.35}}
@keyframes fadein{to{opacity:1}}
@keyframes float{0%,100%{transform:translateY(0)}50%{transform:translateY(-14px)}}
@keyframes twinkle{0%,100%{opacity:0}50%{opacity:.85}}
@keyframes wave{0%,100%{opacity:.25}50%{opacity:.9}}
@keyframes breathe{from{opacity:.07;transform:scale(1)}to{opacity:.16;transform:scale(1.05)}}
@media (prefers-reduced-motion:reduce){.draw,.fill,.leaf,.laurel,.speck,.mu,.glow,.laurel-stem{animation:none}.draw{stroke-dashoffset:0;stroke-opacity:.35}.fill,.leaf{opacity:1}.mu{opacity:.55}.speck{opacity:.4}}
</style>
<rect class="bg" x="0" y="0" width="640" height="400"/>
<ellipse class="glow" cx="380" cy="200" rx="220" ry="200" fill="#955D47"/>
<rect x="380" y="20" width="10" height="10" fill="#1A1A1A"/><rect x="320" y="40" width="10" height="10" fill="#1A1A1A"/><rect x="360" y="40" width="10" height="10" fill="#1A1A1A"/><rect x="400" y="40" width="10" height="10" fill="#1A1A1A"/><rect x="440" y="40" width="10" height="10" fill="#1A1A1A"/><rect x="300" y="60" width="10" height="10" fill="#1A1A1A"/><rect x="340" y="60" width="10" height="10" fill="#1A1A1A"/><rect x="380" y="60" width="10" height="10" fill="#1A1A1A"/><rect x="420" y="60" width="10" height="10" fill="#1A1A1A"/><rect x="460" y="60" width="10" height="10" fill="#1A1A1A"/><rect x="280" y="80" width="10" height="10" fill="#1A1A1A"/><rect x="480" y="80" width="10" height="10" fill="#1A1A1A"/><rect x="260" y="100" width="10" height="10" fill="#1A1A1A"/><rect x="500" y="100" width="10" height="10" fill="#1A1A1A"/><rect x="240" y="120" width="10" height="10" fill="#1A1A1A"/><rect x="520" y="120" width="10" height="10" fill="#1A1A1A"/><rect x="220" y="140" width="10" height="10" fill="#1A1A1A"/><rect x="540" y="140" width="10" height="10" fill="#1A1A1A"/><rect x="240" y="160" width="10" height="10" fill="#1A1A1A"/><rect x="520" y="160" width="10" height="10" fill="#1A1A1A"/><rect x="220" y="180" width="10" height="10" fill="#1A1A1A"/><rect x="540" y="180" width="10" height="10" fill="#1A1A1A"/><rect x="200" y="200" width="10" height="10" fill="#1A1A1A"/><rect x="240" y="200" width="10" height="10" fill="#1A1A1A"/><rect x="520" y="200" width="10" height="10" fill="#1A1A1A"/><rect x="220" y="220" width="10" height="10" fill="#1A1A1A"/><rect x="540" y="220" width="10" height="10" fill="#1A1A1A"/><rect x="240" y="240" width="10" height="10" fill="#1A1A1A"/><rect x="520" y="240" width="10" height="10" fill="#1A1A1A"/><rect x="220" y="260" width="10" height="10" fill="#1A1A1A"/><rect x="540" y="260" width="10" height="10" fill="#1A1A1A"/><rect x="240" y="280" width="10" height="10" fill="#1A1A1A"/><rect x="520" y="280" width="10" height="10" fill="#1A1A1A"/><rect x="260" y="300" width="10" height="10" fill="#1A1A1A"/><rect x="500" y="300" width="10" height="10" fill="#1A1A1A"/><rect x="280" y="320" width="10" height="10" fill="#1A1A1A"/><rect x="480" y="320" width="10" height="10" fill="#1A1A1A"/><rect x="300" y="340" width="10" height="10" fill="#1A1A1A"/><rect x="340" y="340" width="10" height="10" fill="#1A1A1A"/><rect x="380" y="340" width="10" height="10" fill="#1A1A1A"/><rect x="420" y="340" width="10" height="10" fill="#1A1A1A"/><rect x="460" y="340" width="10" height="10" fill="#1A1A1A"/><rect x="320" y="360" width="10" height="10" fill="#1A1A1A"/><rect x="360" y="360" width="10" height="10" fill="#1A1A1A"/><rect x="400" y="360" width="10" height="10" fill="#1A1A1A"/><rect x="440" y="360" width="10" height="10" fill="#1A1A1A"/><rect x="340" y="80" width="10" height="10" fill="#1A1A1A"/><rect x="380" y="80" width="10" height="10" fill="#1A1A1A"/><rect x="420" y="80" width="10" height="10" fill="#1A1A1A"/><rect x="320" y="100" width="10" height="10" fill="#1A1A1A"/><rect x="360" y="100" width="10" height="10" fill="#1A1A1A"/><rect x="400" y="100" width="10" height="10" fill="#1A1A1A"/><rect x="440" y="100" width="10" height="10" fill="#1A1A1A"/><rect x="300" y="120" width="10" height="10" fill="#1A1A1A"/><rect x="460" y="120" width="10" height="10" fill="#1A1A1A"/><rect x="280" y="140" width="10" height="10" fill="#1A1A1A"/><rect x="480" y="140" width="10" height="10" fill="#1A1A1A"/><rect x="260" y="160" width="10" height="10" fill="#1A1A1A"/><rect x="500" y="160" width="10" height="10" fill="#1A1A1A"/><rect x="280" y="180" width="10" height="10" fill="#1A1A1A"/><rect x="480" y="180" width="10" height="10" fill="#1A1A1A"/><rect x="260" y="200" width="10" height="10" fill="#1A1A1A"/><rect x="500" y="200" width="10" height="10" fill="#1A1A1A"/><rect x="280" y="220" width="10" height="10" fill="#1A1A1A"/><rect x="480" y="220" width="10" height="10" fill="#1A1A1A"/><rect x="260" y="240" width="10" height="10" fill="#1A1A1A"/><rect x="500" y="240" width="10" height="10" fill="#1A1A1A"/><rect x="280" y="260" width="10" height="10" fill="#1A1A1A"/><rect x="480" y="260" width="10" height="10" fill="#1A1A1A"/><rect x="300" y="280" width="10" height="10" fill="#1A1A1A"/><rect x="460" y="280" width="10" height="10" fill="#1A1A1A"/><rect x="320" y="300" width="10" height="10" fill="#1A1A1A"/><rect x="360" y="300" width="10" height="10" fill="#1A1A1A"/><rect x="400" y="300" width="10" height="10" fill="#1A1A1A"/><rect x="440" y="300" width="10" height="10" fill="#1A1A1A"/><rect x="340" y="320" width="10" height="10" fill="#1A1A1A"/><rect x="380" y="320" width="10" height="10" fill="#1A1A1A"/><rect x="420" y="320" width="10" height="10" fill="#1A1A1A"/><rect x="380" y="100" width="10" height="10" fill="#1A1A1A"/><rect x="320" y="120" width="10" height="10" fill="#1A1A1A"/><rect x="360" y="120" width="10" height="10" fill="#1A1A1A"/><rect x="400" y="120" width="10" height="10" fill="#1A1A1A"/><rect x="440" y="120" width="10" height="10" fill="#1A1A1A"/><rect x="300" y="140" width="10" height="10" fill="#1A1A1A"/><rect x="340" y="140" width="10" height="10" fill="#1A1A1A"/><rect x="420" y="140" width="10" height="10" fill="#1A1A1A"/><rect x="460" y="140" width="10" height="10" fill="#1A1A1A"/><rect x="320" y="160" width="10" height="10" fill="#1A1A1A"/><rect x="440" y="160" width="10" height="10" fill="#1A1A1A"/><rect x="300" y="180" width="10" height="10" fill="#1A1A1A"/><rect x="460" y="180" width="10" height="10" fill="#1A1A1A"/><rect x="280" y="200" width="10" height="10" fill="#1A1A1A"/><rect x="300" y="220" width="10" height="10" fill="#1A1A1A"/><rect x="460" y="220" width="10" height="10" fill="#1A1A1A"/><rect x="320" y="240" width="10" height="10" fill="#1A1A1A"/><rect x="440" y="240" width="10" height="10" fill="#1A1A1A"/><rect x="300" y="260" width="10" height="10" fill="#1A1A1A"/><rect x="340" y="260" width="10" height="10" fill="#1A1A1A"/><rect x="420" y="260" width="10" height="10" fill="#1A1A1A"/><rect x="460" y="260" width="10" height="10" fill="#1A1A1A"/><rect x="320" y="280" width="10" height="10" fill="#1A1A1A"/><rect x="360" y="280" width="10" height="10" fill="#1A1A1A"/><rect x="400" y="280" width="10" height="10" fill="#1A1A1A"/><rect x="440" y="280" width="10" height="10" fill="#1A1A1A"/>
<g class="laurel"><path class="laurel-stem" d="M 90 330 Q 100 200 190 100" pathLength="1"/><g class="leaf" style="animation-delay:1.30s"><rect x="80" y="290" width="30" height="10" fill="#F7F6F3"/><rect x="90" y="280" width="20" height="10" fill="#F7F6F3"/></g><g class="leaf" style="animation-delay:1.48s"><rect x="110" y="250" width="30" height="10" fill="#F7F6F3"/><rect x="120" y="240" width="20" height="10" fill="#F7F6F3"/></g><g class="leaf" style="animation-delay:1.66s"><rect x="100" y="210" width="30" height="10" fill="#F7F6F3"/><rect x="110" y="200" width="20" height="10" fill="#F7F6F3"/></g><g class="leaf" style="animation-delay:1.84s"><rect x="130" y="170" width="30" height="10" fill="#F7F6F3"/><rect x="140" y="160" width="20" height="10" fill="#F7F6F3"/></g><g class="leaf" style="animation-delay:2.02s"><rect x="130" y="140" width="30" height="10" fill="#F7F6F3"/><rect x="140" y="130" width="20" height="10" fill="#F7F6F3"/></g><g class="leaf" style="animation-delay:2.20s"><rect x="170" y="110" width="30" height="10" fill="#F7F6F3"/><rect x="180" y="100" width="20" height="10" fill="#F7F6F3"/></g></g>
<rect class="speck" style="animation-delay:0.00s" x="140" y="80" width="10" height="10" fill="#F7F6F3"/><rect class="speck" style="animation-delay:0.70s" x="180" y="160" width="10" height="10" fill="#F7F6F3"/><rect class="speck" style="animation-delay:1.40s" x="100" y="220" width="10" height="10" fill="#F7F6F3"/><rect class="speck" style="animation-delay:2.10s" x="160" y="270" width="10" height="10" fill="#F7F6F3"/><rect class="speck" style="animation-delay:2.80s" x="500" y="90" width="10" height="10" fill="#F7F6F3"/><rect class="speck" style="animation-delay:3.50s" x="540" y="170" width="10" height="10" fill="#F7F6F3"/><rect class="speck" style="animation-delay:4.20s" x="520" y="250" width="10" height="10" fill="#F7F6F3"/><rect class="speck" style="animation-delay:0.70s" x="480" y="300" width="10" height="10" fill="#F7F6F3"/><rect class="speck" style="animation-delay:1.40s" x="60" y="140" width="10" height="10" fill="#F7F6F3"/><rect class="speck" style="animation-delay:2.10s" x="580" y="120" width="10" height="10" fill="#F7F6F3"/>
<g class="mu" style="animation-delay:0.00s"><rect x="80" y="360" width="40" height="10" fill="#F7F6F3"/><rect x="110" y="370" width="10" height="10" fill="#F7F6F3"/><rect x="100" y="380" width="20" height="10" fill="#F7F6F3"/><rect x="100" y="390" width="10" height="10" fill="#F7F6F3"/></g><g class="mu" style="animation-delay:0.18s"><rect x="120" y="360" width="40" height="10" fill="#F7F6F3"/><rect x="150" y="370" width="10" height="10" fill="#F7F6F3"/><rect x="140" y="380" width="20" height="10" fill="#F7F6F3"/><rect x="140" y="390" width="10" height="10" fill="#F7F6F3"/></g><g class="mu" style="animation-delay:0.36s"><rect x="160" y="360" width="40" height="10" fill="#F7F6F3"/><rect x="190" y="370" width="10" height="10" fill="#F7F6F3"/><rect x="180" y="380" width="20" height="10" fill="#F7F6F3"/><rect x="180" y="390" width="10" height="10" fill="#F7F6F3"/></g><g class="mu" style="animation-delay:0.54s"><rect x="200" y="360" width="40" height="10" fill="#F7F6F3"/><rect x="230" y="370" width="10" height="10" fill="#F7F6F3"/><rect x="220" y="380" width="20" height="10" fill="#F7F6F3"/><rect x="220" y="390" width="10" height="10" fill="#F7F6F3"/></g><g class="mu" style="animation-delay:0.72s"><rect x="240" y="360" width="40" height="10" fill="#F7F6F3"/><rect x="270" y="370" width="10" height="10" fill="#F7F6F3"/><rect x="260" y="380" width="20" height="10" fill="#F7F6F3"/><rect x="260" y="390" width="10" height="10" fill="#F7F6F3"/></g><g class="mu" style="animation-delay:0.90s"><rect x="280" y="360" width="40" height="10" fill="#F7F6F3"/><rect x="310" y="370" width="10" height="10" fill="#F7F6F3"/><rect x="300" y="380" width="20" height="10" fill="#F7F6F3"/><rect x="300" y="390" width="10" height="10" fill="#F7F6F3"/></g><g class="mu" style="animation-delay:1.08s"><rect x="320" y="360" width="40" height="10" fill="#F7F6F3"/><rect x="350" y="370" width="10" height="10" fill="#F7F6F3"/><rect x="340" y="380" width="20" height="10" fill="#F7F6F3"/><rect x="340" y="390" width="10" height="10" fill="#F7F6F3"/></g><g class="mu" style="animation-delay:1.26s"><rect x="360" y="360" width="40" height="10" fill="#F7F6F3"/><rect x="390" y="370" width="10" height="10" fill="#F7F6F3"/><rect x="380" y="380" width="20" height="10" fill="#F7F6F3"/><rect x="380" y="390" width="10" height="10" fill="#F7F6F3"/></g><g class="mu" style="animation-delay:1.44s"><rect x="400" y="360" width="40" height="10" fill="#F7F6F3"/><rect x="430" y="370" width="10" height="10" fill="#F7F6F3"/><rect x="420" y="380" width="20" height="10" fill="#F7F6F3"/><rect x="420" y="390" width="10" height="10" fill="#F7F6F3"/></g><g class="mu" style="animation-delay:1.62s"><rect x="440" y="360" width="40" height="10" fill="#F7F6F3"/><rect x="470" y="370" width="10" height="10" fill="#F7F6F3"/><rect x="460" y="380" width="20" height="10" fill="#F7F6F3"/><rect x="460" y="390" width="10" height="10" fill="#F7F6F3"/></g><g class="mu" style="animation-delay:1.80s"><rect x="480" y="360" width="40" height="10" fill="#F7F6F3"/><rect x="510" y="370" width="10" height="10" fill="#F7F6F3"/><rect x="500" y="380" width="20" height="10" fill="#F7F6F3"/><rect x="500" y="390" width="10" height="10" fill="#F7F6F3"/></g><g class="mu" style="animation-delay:1.98s"><rect x="520" y="360" width="40" height="10" fill="#F7F6F3"/><rect x="550" y="370" width="10" height="10" fill="#F7F6F3"/><rect x="540" y="380" width="20" height="10" fill="#F7F6F3"/><rect x="540" y="390" width="10" height="10" fill="#F7F6F3"/></g>
<path class="draw" d="M 330 50 H 440 H 460 V 70 H 470 V 80 H 430 V 90 V 100 V 110 V 120 V 130 H 470 V 140 H 490 V 150 H 500 V 160 H 510 V 170 V 180 V 190 V 200 V 210 V 220 V 230 V 240 V 250 H 500 V 260 H 490 V 270 H 480 V 280 H 460 V 290 H 450 V 300 H 440 V 310 H 420 V 320 V 330 H 440 V 340 H 450 V 350 V 360 H 320 V 340 V 330 H 330 V 320 H 350 V 310 V 300 H 330 V 290 H 320 V 280 H 310 V 270 H 290 V 260 H 280 V 250 H 270 V 240 H 260 V 230 V 220 V 210 V 200 V 190 V 180 V 170 V 160 V 150 H 270 V 140 H 280 V 130 H 290 V 120 H 340 V 110 V 100 V 90 V 80 V 70 H 300 V 60 H 310 V 50 H 330 Z" pathLength="1"/>
<path class="draw" d="M 310 80 H 290 V 130 H 310" pathLength="1" style="animation-delay:.55s,.3s"/>
<path class="draw" d="M 450 80 H 470 V 130 H 450" pathLength="1" style="animation-delay:.7s,.45s"/>
<g class="fill"><rect x="330" y="50" width="110" height="10" fill="#955D47"/><rect x="310" y="60" width="150" height="10" fill="#955D47"/><rect x="300" y="70" width="170" height="10" fill="#955D47"/><rect x="340" y="80" width="90" height="50" fill="#955D47"/><rect x="290" y="80" width="20" height="10" fill="#955D47"/><rect x="280" y="90" width="20" height="30" fill="#955D47"/><rect x="290" y="120" width="20" height="10" fill="#955D47"/><rect x="300" y="130" width="20" height="10" fill="#955D47"/><rect x="450" y="80" width="20" height="10" fill="#955D47"/><rect x="460" y="90" width="20" height="30" fill="#955D47"/><rect x="450" y="120" width="20" height="10" fill="#955D47"/><rect x="440" y="130" width="20" height="10" fill="#955D47"/><rect x="290" y="130" width="180" height="10" fill="#955D47"/><rect x="280" y="140" width="210" height="10" fill="#955D47"/><rect x="270" y="150" width="230" height="10" fill="#955D47"/><rect x="260" y="160" width="250" height="90" fill="#955D47"/><rect x="270" y="250" width="230" height="10" fill="#955D47"/><rect x="280" y="260" width="210" height="10" fill="#955D47"/><rect x="290" y="270" width="190" height="10" fill="#955D47"/><rect x="310" y="280" width="150" height="10" fill="#955D47"/><rect x="320" y="290" width="130" height="10" fill="#955D47"/><rect x="330" y="300" width="110" height="10" fill="#955D47"/><rect x="350" y="310" width="70" height="20" fill="#955D47"/><rect x="330" y="330" width="110" height="10" fill="#955D47"/><rect x="320" y="340" width="130" height="10" fill="#955D47"/><rect x="350" y="90" width="70" height="10" fill="#F7F6F3"/><rect x="290" y="140" width="190" height="10" fill="#F7F6F3"/><rect x="280" y="180" width="40" height="10" fill="#F7F6F3"/><rect x="310" y="190" width="10" height="10" fill="#F7F6F3"/><rect x="300" y="200" width="20" height="10" fill="#F7F6F3"/><rect x="300" y="210" width="10" height="10" fill="#F7F6F3"/><rect x="320" y="180" width="40" height="10" fill="#F7F6F3"/><rect x="350" y="190" width="10" height="10" fill="#F7F6F3"/><rect x="340" y="200" width="20" height="10" fill="#F7F6F3"/><rect x="340" y="210" width="10" height="10" fill="#F7F6F3"/><rect x="360" y="180" width="40" height="10" fill="#F7F6F3"/><rect x="390" y="190" width="10" height="10" fill="#F7F6F3"/><rect x="380" y="200" width="20" height="10" fill="#F7F6F3"/><rect x="380" y="210" width="10" height="10" fill="#F7F6F3"/><rect x="400" y="180" width="40" height="10" fill="#F7F6F3"/><rect x="430" y="190" width="10" height="10" fill="#F7F6F3"/><rect x="420" y="200" width="20" height="10" fill="#F7F6F3"/><rect x="420" y="210" width="10" height="10" fill="#F7F6F3"/><rect x="440" y="180" width="40" height="10" fill="#F7F6F3"/><rect x="470" y="190" width="10" height="10" fill="#F7F6F3"/><rect x="460" y="200" width="20" height="10" fill="#F7F6F3"/><rect x="460" y="210" width="10" height="10" fill="#F7F6F3"/><rect x="270" y="170" width="230" height="10" fill="#F7F6F3"/><rect x="270" y="220" width="230" height="10" fill="#F7F6F3"/><rect x="340" y="330" width="90" height="10" fill="#F7F6F3"/><rect x="260" y="160" width="10" height="10" fill="#0D0C0B"/><rect x="280" y="160" width="10" height="10" fill="#0D0C0B"/><rect x="300" y="160" width="10" height="10" fill="#0D0C0B"/><rect x="320" y="160" width="10" height="10" fill="#0D0C0B"/><rect x="340" y="160" width="10" height="10" fill="#0D0C0B"/><rect x="360" y="160" width="10" height="10" fill="#0D0C0B"/><rect x="380" y="160" width="10" height="10" fill="#0D0C0B"/><rect x="400" y="160" width="10" height="10" fill="#0D0C0B"/><rect x="420" y="160" width="10" height="10" fill="#0D0C0B"/><rect x="440" y="160" width="10" height="10" fill="#0D0C0B"/><rect x="460" y="160" width="10" height="10" fill="#0D0C0B"/><rect x="480" y="160" width="10" height="10" fill="#0D0C0B"/><rect x="500" y="160" width="10" height="10" fill="#0D0C0B"/><rect x="270" y="170" width="10" height="10" fill="#0D0C0B"/><rect x="290" y="170" width="10" height="10" fill="#0D0C0B"/><rect x="310" y="170" width="10" height="10" fill="#0D0C0B"/><rect x="330" y="170" width="10" height="10" fill="#0D0C0B"/><rect x="350" y="170" width="10" height="10" fill="#0D0C0B"/><rect x="370" y="170" width="10" height="10" fill="#0D0C0B"/><rect x="390" y="170" width="10" height="10" fill="#0D0C0B"/><rect x="410" y="170" width="10" height="10" fill="#0D0C0B"/><rect x="430" y="170" width="10" height="10" fill="#0D0C0B"/><rect x="450" y="170" width="10" height="10" fill="#0D0C0B"/><rect x="470" y="170" width="10" height="10" fill="#0D0C0B"/><rect x="490" y="170" width="10" height="10" fill="#0D0C0B"/><rect x="280" y="180" width="10" height="10" fill="#0D0C0B"/><rect x="300" y="180" width="10" height="10" fill="#0D0C0B"/><rect x="320" y="180" width="10" height="10" fill="#0D0C0B"/><rect x="340" y="180" width="10" height="10" fill="#0D0C0B"/><rect x="360" y="180" width="10" height="10" fill="#0D0C0B"/><rect x="380" y="180" width="10" height="10" fill="#0D0C0B"/><rect x="400" y="180" width="10" height="10" fill="#0D0C0B"/><rect x="420" y="180" width="10" height="10" fill="#0D0C0B"/><rect x="440" y="180" width="10" height="10" fill="#0D0C0B"/><rect x="460" y="180" width="10" height="10" fill="#0D0C0B"/><rect x="480" y="180" width="10" height="10" fill="#0D0C0B"/><rect x="500" y="180" width="10" height="10" fill="#0D0C0B"/><rect x="270" y="190" width="10" height="10" fill="#0D0C0B"/><rect x="290" y="190" width="10" height="10" fill="#0D0C0B"/><rect x="310" y="190" width="10" height="10" fill="#0D0C0B"/><rect x="330" y="190" width="10" height="10" fill="#0D0C0B"/><rect x="350" y="190" width="10" height="10" fill="#0D0C0B"/><rect x="370" y="190" width="10" height="10" fill="#0D0C0B"/><rect x="390" y="190" width="10" height="10" fill="#0D0C0B"/><rect x="410" y="190" width="10" height="10" fill="#0D0C0B"/><rect x="430" y="190" width="10" height="10" fill="#0D0C0B"/><rect x="450" y="190" width="10" height="10" fill="#0D0C0B"/><rect x="470" y="190" width="10" height="10" fill="#0D0C0B"/><rect x="490" y="190" width="10" height="10" fill="#0D0C0B"/><rect x="280" y="200" width="10" height="10" fill="#0D0C0B"/><rect x="300" y="200" width="10" height="10" fill="#0D0C0B"/><rect x="320" y="200" width="10" height="10" fill="#0D0C0B"/><rect x="340" y="200" width="10" height="10" fill="#0D0C0B"/><rect x="360" y="200" width="10" height="10" fill="#0D0C0B"/><rect x="380" y="200" width="10" height="10" fill="#0D0C0B"/><rect x="400" y="200" width="10" height="10" fill="#0D0C0B"/><rect x="420" y="200" width="10" height="10" fill="#0D0C0B"/><rect x="440" y="200" width="10" height="10" fill="#0D0C0B"/><rect x="460" y="200" width="10" height="10" fill="#0D0C0B"/><rect x="480" y="200" width="10" height="10" fill="#0D0C0B"/><rect x="500" y="200" width="10" height="10" fill="#0D0C0B"/><rect x="270" y="210" width="10" height="10" fill="#0D0C0B"/><rect x="290" y="210" width="10" height="10" fill="#0D0C0B"/><rect x="310" y="210" width="10" height="10" fill="#0D0C0B"/><rect x="330" y="210" width="10" height="10" fill="#0D0C0B"/><rect x="350" y="210" width="10" height="10" fill="#0D0C0B"/><rect x="370" y="210" width="10" height="10" fill="#0D0C0B"/><rect x="390" y="210" width="10" height="10" fill="#0D0C0B"/><rect x="410" y="210" width="10" height="10" fill="#0D0C0B"/><rect x="430" y="210" width="10" height="10" fill="#0D0C0B"/><rect x="450" y="210" width="10" height="10" fill="#0D0C0B"/><rect x="470" y="210" width="10" height="10" fill="#0D0C0B"/><rect x="490" y="210" width="10" height="10" fill="#0D0C0B"/><rect x="280" y="220" width="10" height="10" fill="#0D0C0B"/><rect x="300" y="220" width="10" height="10" fill="#0D0C0B"/><rect x="320" y="220" width="10" height="10" fill="#0D0C0B"/><rect x="340" y="220" width="10" height="10" fill="#0D0C0B"/><rect x="360" y="220" width="10" height="10" fill="#0D0C0B"/><rect x="380" y="220" width="10" height="10" fill="#0D0C0B"/><rect x="400" y="220" width="10" height="10" fill="#0D0C0B"/><rect x="420" y="220" width="10" height="10" fill="#0D0C0B"/><rect x="440" y="220" width="10" height="10" fill="#0D0C0B"/><rect x="460" y="220" width="10" height="10" fill="#0D0C0B"/><rect x="480" y="220" width="10" height="10" fill="#0D0C0B"/><rect x="290" y="230" width="10" height="10" fill="#0D0C0B"/><rect x="310" y="230" width="10" height="10" fill="#0D0C0B"/><rect x="330" y="230" width="10" height="10" fill="#0D0C0B"/><rect x="350" y="230" width="10" height="10" fill="#0D0C0B"/><rect x="370" y="230" width="10" height="10" fill="#0D0C0B"/><rect x="390" y="230" width="10" height="10" fill="#0D0C0B"/><rect x="410" y="230" width="10" height="10" fill="#0D0C0B"/><rect x="430" y="230" width="10" height="10" fill="#0D0C0B"/><rect x="450" y="230" width="10" height="10" fill="#0D0C0B"/><rect x="470" y="230" width="10" height="10" fill="#0D0C0B"/><rect x="490" y="230" width="10" height="10" fill="#0D0C0B"/><rect x="280" y="240" width="10" height="10" fill="#0D0C0B"/><rect x="300" y="240" width="10" height="10" fill="#0D0C0B"/><rect x="320" y="240" width="10" height="10" fill="#0D0C0B"/><rect x="340" y="240" width="10" height="10" fill="#0D0C0B"/><rect x="360" y="240" width="10" height="10" fill="#0D0C0B"/><rect x="380" y="240" width="10" height="10" fill="#0D0C0B"/><rect x="400" y="240" width="10" height="10" fill="#0D0C0B"/><rect x="420" y="240" width="10" height="10" fill="#0D0C0B"/><rect x="440" y="240" width="10" height="10" fill="#0D0C0B"/><rect x="460" y="240" width="10" height="10" fill="#0D0C0B"/><rect x="480" y="240" width="10" height="10" fill="#0D0C0B"/><rect x="290" y="250" width="10" height="10" fill="#0D0C0B"/><rect x="310" y="250" width="10" height="10" fill="#0D0C0B"/><rect x="330" y="250" width="10" height="10" fill="#0D0C0B"/><rect x="350" y="250" width="10" height="10" fill="#0D0C0B"/><rect x="370" y="250" width="10" height="10" fill="#0D0C0B"/><rect x="390" y="250" width="10" height="10" fill="#0D0C0B"/><rect x="410" y="250" width="10" height="10" fill="#0D0C0B"/><rect x="430" y="250" width="10" height="10" fill="#0D0C0B"/><rect x="450" y="250" width="10" height="10" fill="#0D0C0B"/><rect x="470" y="250" width="10" height="10" fill="#0D0C0B"/><rect x="490" y="250" width="10" height="10" fill="#0D0C0B"/><rect x="300" y="260" width="10" height="10" fill="#0D0C0B"/><rect x="320" y="260" width="10" height="10" fill="#0D0C0B"/><rect x="340" y="260" width="10" height="10" fill="#0D0C0B"/><rect x="360" y="260" width="10" height="10" fill="#0D0C0B"/><rect x="380" y="260" width="10" height="10" fill="#0D0C0B"/><rect x="400" y="260" width="10" height="10" fill="#0D0C0B"/><rect x="420" y="260" width="10" height="10" fill="#0D0C0B"/><rect x="440" y="260" width="10" height="10" fill="#0D0C0B"/><rect x="460" y="260" width="10" height="10" fill="#0D0C0B"/><rect x="480" y="260" width="10" height="10" fill="#0D0C0B"/><rect x="310" y="270" width="10" height="10" fill="#0D0C0B"/><rect x="330" y="270" width="10" height="10" fill="#0D0C0B"/><rect x="350" y="270" width="10" height="10" fill="#0D0C0B"/><rect x="370" y="270" width="10" height="10" fill="#0D0C0B"/><rect x="390" y="270" width="10" height="10" fill="#0D0C0B"/><rect x="410" y="270" width="10" height="10" fill="#0D0C0B"/><rect x="430" y="270" width="10" height="10" fill="#0D0C0B"/><rect x="450" y="270" width="10" height="10" fill="#0D0C0B"/><rect x="470" y="270" width="10" height="10" fill="#0D0C0B"/><rect x="320" y="280" width="10" height="10" fill="#0D0C0B"/><rect x="340" y="280" width="10" height="10" fill="#0D0C0B"/><rect x="360" y="280" width="10" height="10" fill="#0D0C0B"/><rect x="380" y="280" width="10" height="10" fill="#0D0C0B"/><rect x="400" y="280" width="10" height="10" fill="#0D0C0B"/><rect x="420" y="280" width="10" height="10" fill="#0D0C0B"/><rect x="440" y="280" width="10" height="10" fill="#0D0C0B"/><rect x="460" y="280" width="10" height="10" fill="#0D0C0B"/><rect x="260" y="160" width="10" height="10" fill="#BCBAB5"/><rect x="260" y="170" width="10" height="10" fill="#BCBAB5"/><rect x="270" y="180" width="10" height="10" fill="#BCBAB5"/><rect x="270" y="190" width="10" height="10" fill="#BCBAB5"/><rect x="270" y="200" width="10" height="10" fill="#BCBAB5"/><rect x="270" y="210" width="10" height="10" fill="#BCBAB5"/><rect x="280" y="220" width="10" height="10" fill="#BCBAB5"/><rect x="280" y="230" width="10" height="10" fill="#BCBAB5"/><rect x="280" y="240" width="10" height="10" fill="#BCBAB5"/></g>
</svg>