<svg xmlns="http://www.w3.org/2000/svg" width="640" height="400" viewBox="0 0 640 400">
<rect x="0" y="0" width="640" height="400" fill="#0D0C0B"/>
<ellipse cx="320" cy="190" rx="200" ry="190" fill="#955D47" opacity="0.07">
<animate attributeName="opacity" values="0.07;0.15;0.07" dur="14s" repeatCount="indefinite" calcMode="spline" keySplines="0.45 0 0.55 1;0.45 0 0.55 1" keyTimes="0;0.5;1"/></ellipse>
<rect x="250" y="40" width="10" height="10" fill="#1A1A1A"/><rect x="290" y="40" width="10" height="10" fill="#1A1A1A"/><rect x="330" y="40" width="10" height="10" fill="#1A1A1A"/><rect x="370" y="40" width="10" height="10" fill="#1A1A1A"/><rect x="230" y="60" width="10" height="10" fill="#1A1A1A"/><rect x="270" y="60" width="10" height="10" fill="#1A1A1A"/><rect x="310" y="60" width="10" height="10" fill="#1A1A1A"/><rect x="350" y="60" width="10" height="10" fill="#1A1A1A"/><rect x="390" y="60" width="10" height="10" fill="#1A1A1A"/><rect x="210" y="80" width="10" height="10" fill="#1A1A1A"/><rect x="250" y="80" width="10" height="10" fill="#1A1A1A"/><rect x="410" y="80" width="10" height="10" fill="#1A1A1A"/><rect x="190" y="100" width="10" height="10" fill="#1A1A1A"/><rect x="430" y="100" width="10" height="10" fill="#1A1A1A"/><rect x="170" y="120" width="10" height="10" fill="#1A1A1A"/><rect x="210" y="120" width="10" height="10" fill="#1A1A1A"/><rect x="450" y="120" width="10" height="10" fill="#1A1A1A"/><rect x="190" y="140" width="10" height="10" fill="#1A1A1A"/><rect x="470" y="140" width="10" height="10" fill="#1A1A1A"/><rect x="170" y="160" width="10" height="10" fill="#1A1A1A"/><rect x="450" y="160" width="10" height="10" fill="#1A1A1A"/><rect x="190" y="180" width="10" height="10" fill="#1A1A1A"/><rect x="470" y="180" width="10" height="10" fill="#1A1A1A"/><rect x="170" y="200" width="10" height="10" fill="#1A1A1A"/><rect x="450" y="200" width="10" height="10" fill="#1A1A1A"/><rect x="190" y="220" width="10" height="10" fill="#1A1A1A"/><rect x="470" y="220" width="10" height="10" fill="#1A1A1A"/><rect x="170" y="240" width="10" height="10" fill="#1A1A1A"/><rect x="450" y="240" width="10" height="10" fill="#1A1A1A"/><rect x="190" y="260" width="10" height="10" fill="#1A1A1A"/><rect x="430" y="260" width="10" height="10" fill="#1A1A1A"/><rect x="470" y="260" width="10" height="10" fill="#1A1A1A"/><rect x="210" y="280" width="10" height="10" fill="#1A1A1A"/><rect x="450" y="280" width="10" height="10" fill="#1A1A1A"/><rect x="230" y="300" width="10" height="10" fill="#1A1A1A"/><rect x="390" y="300" width="10" height="10" fill="#1A1A1A"/><rect x="430" y="300" width="10" height="10" fill="#1A1A1A"/><rect x="250" y="320" width="10" height="10" fill="#1A1A1A"/><rect x="290" y="320" width="10" height="10" fill="#1A1A1A"/><rect x="330" y="320" width="10" height="10" fill="#1A1A1A"/><rect x="370" y="320" width="10" height="10" fill="#1A1A1A"/><rect x="410" y="320" width="10" height="10" fill="#1A1A1A"/><rect x="270" y="340" width="10" height="10" fill="#1A1A1A"/><rect x="310" y="340" width="10" height="10" fill="#1A1A1A"/><rect x="350" y="340" width="10" height="10" fill="#1A1A1A"/><rect x="390" y="340" width="10" height="10" fill="#1A1A1A"/><rect x="270" y="80" width="10" height="10" fill="#1A1A1A"/><rect x="310" y="80" width="10" height="10" fill="#1A1A1A"/><rect x="350" y="80" width="10" height="10" fill="#1A1A1A"/><rect x="250" y="100" width="10" height="10" fill="#1A1A1A"/><rect x="290" y="100" width="10" height="10" fill="#1A1A1A"/><rect x="330" y="100" width="10" height="10" fill="#1A1A1A"/><rect x="370" y="100" width="10" height="10" fill="#1A1A1A"/><rect x="410" y="100" width="10" height="10" fill="#1A1A1A"/><rect x="230" y="120" width="10" height="10" fill="#1A1A1A"/><rect x="390" y="120" width="10" height="10" fill="#1A1A1A"/><rect x="210" y="140" width="10" height="10" fill="#1A1A1A"/><rect x="410" y="140" width="10" height="10" fill="#1A1A1A"/><rect x="230" y="160" width="10" height="10" fill="#1A1A1A"/><rect x="430" y="160" width="10" height="10" fill="#1A1A1A"/><rect x="210" y="180" width="10" height="10" fill="#1A1A1A"/><rect x="410" y="180" width="10" height="10" fill="#1A1A1A"/><rect x="230" y="200" width="10" height="10" fill="#1A1A1A"/><rect x="430" y="200" width="10" height="10" fill="#1A1A1A"/><rect x="210" y="220" width="10" height="10" fill="#1A1A1A"/><rect x="410" y="220" width="10" height="10" fill="#1A1A1A"/><rect x="230" y="240" width="10" height="10" fill="#1A1A1A"/><rect x="430" y="240" width="10" height="10" fill="#1A1A1A"/><rect x="250" y="260" width="10" height="10" fill="#1A1A1A"/><rect x="410" y="260" width="10" height="10" fill="#1A1A1A"/><rect x="230" y="280" width="10" height="10" fill="#1A1A1A"/><rect x="270" y="280" width="10" height="10" fill="#1A1A1A"/><rect x="310" y="280" width="10" height="10" fill="#1A1A1A"/><rect x="350" y="280" width="10" height="10" fill="#1A1A1A"/><rect x="390" y="280" width="10" height="10" fill="#1A1A1A"/><rect x="290" y="300" width="10" height="10" fill="#1A1A1A"/><rect x="330" y="300" width="10" height="10" fill="#1A1A1A"/><rect x="370" y="300" width="10" height="10" fill="#1A1A1A"/><rect x="290" y="120" width="10" height="10" fill="#1A1A1A"/><rect x="330" y="120" width="10" height="10" fill="#1A1A1A"/><rect x="370" y="120" width="10" height="10" fill="#1A1A1A"/><rect x="270" y="140" width="10" height="10" fill="#1A1A1A"/><rect x="390" y="140" width="10" height="10" fill="#1A1A1A"/><rect x="250" y="160" width="10" height="10" fill="#1A1A1A"/><rect x="390" y="180" width="10" height="10" fill="#1A1A1A"/><rect x="250" y="200" width="10" height="10" fill="#1A1A1A"/><rect x="390" y="220" width="10" height="10" fill="#1A1A1A"/><rect x="250" y="240" width="10" height="10" fill="#1A1A1A"/><rect x="370" y="240" width="10" height="10" fill="#1A1A1A"/><rect x="270" y="260" width="10" height="10" fill="#1A1A1A"/><rect x="310" y="260" width="10" height="10" fill="#1A1A1A"/><rect x="350" y="260" width="10" height="10" fill="#1A1A1A"/>
<rect x="100" y="60" width="10" height="10" fill="#F7F6F3" opacity="0"><animate attributeName="opacity" values="0;0.85;0" dur="4.2s" begin="0.00s" repeatCount="indefinite" calcMode="spline" keySplines="0.45 0 0.55 1;0.45 0 0.55 1" keyTimes="0;0.5;1"/></rect><rect x="140" y="120" width="10" height="10" fill="#F7F6F3" opacity="0"><animate attributeName="opacity" values="0;0.85;0" dur="4.2s" begin="0.70s" repeatCount="indefinite" calcMode="spline" keySplines="0.45 0 0.55 1;0.45 0 0.55 1" keyTimes="0;0.5;1"/></rect><rect x="80" y="200" width="10" height="10" fill="#F7F6F3" opacity="0"><animate attributeName="opacity" values="0;0.85;0" dur="4.2s" begin="1.40s" repeatCount="indefinite" calcMode="spline" keySplines="0.45 0 0.55 1;0.45 0 0.55 1" keyTimes="0;0.5;1"/></rect><rect x="120" y="270" width="10" height="10" fill="#F7F6F3" opacity="0"><animate attributeName="opacity" values="0;0.85;0" dur="4.2s" begin="2.10s" repeatCount="indefinite" calcMode="spline" keySplines="0.45 0 0.55 1;0.45 0 0.55 1" keyTimes="0;0.5;1"/></rect><rect x="160" y="320" width="10" height="10" fill="#F7F6F3" opacity="0"><animate attributeName="opacity" values="0;0.85;0" dur="4.2s" begin="2.80s" repeatCount="indefinite" calcMode="spline" keySplines="0.45 0 0.55 1;0.45 0 0.55 1" keyTimes="0;0.5;1"/></rect><rect x="520" y="60" width="10" height="10" fill="#F7F6F3" opacity="0"><animate attributeName="opacity" values="0;0.85;0" dur="4.2s" begin="3.50s" repeatCount="indefinite" calcMode="spline" keySplines="0.45 0 0.55 1;0.45 0 0.55 1" keyTimes="0;0.5;1"/></rect><rect x="560" y="140" width="10" height="10" fill="#F7F6F3" opacity="0"><animate attributeName="opacity" values="0;0.85;0" dur="4.2s" begin="4.20s" repeatCount="indefinite" calcMode="spline" keySplines="0.45 0 0.55 1;0.45 0 0.55 1" keyTimes="0;0.5;1"/></rect><rect x="500" y="220" width="10" height="10" fill="#F7F6F3" opacity="0"><animate attributeName="opacity" values="0;0.85;0" dur="4.2s" begin="0.70s" repeatCount="indefinite" calcMode="spline" keySplines="0.45 0 0.55 1;0.45 0 0.55 1" keyTimes="0;0.5;1"/></rect><rect x="540" y="300" width="10" height="10" fill="#F7F6F3" opacity="0"><animate attributeName="opacity" values="0;0.85;0" dur="4.2s" begin="1.40s" repeatCount="indefinite" calcMode="spline" keySplines="0.45 0 0.55 1;0.45 0 0.55 1" keyTimes="0;0.5;1"/></rect><rect x="70" y="340" width="10" height="10" fill="#F7F6F3" opacity="0"><animate attributeName="opacity" values="0;0.85;0" dur="4.2s" begin="2.10s" repeatCount="indefinite" calcMode="spline" keySplines="0.45 0 0.55 1;0.45 0 0.55 1" keyTimes="0;0.5;1"/></rect><rect x="580" y="350" width="10" height="10" fill="#F7F6F3" opacity="0"><animate attributeName="opacity" values="0;0.85;0" dur="4.2s" begin="2.80s" repeatCount="indefinite" calcMode="spline" keySplines="0.45 0 0.55 1;0.45 0 0.55 1" keyTimes="0;0.5;1"/></rect><rect x="460" y="80" width="10" height="10" fill="#F7F6F3" opacity="0"><animate attributeName="opacity" values="0;0.85;0" dur="4.2s" begin="3.50s" repeatCount="indefinite" calcMode="spline" keySplines="0.45 0 0.55 1;0.45 0 0.55 1" keyTimes="0;0.5;1"/></rect><rect x="190" y="80" width="10" height="10" fill="#F7F6F3" opacity="0"><animate attributeName="opacity" values="0;0.85;0" dur="4.2s" begin="4.20s" repeatCount="indefinite" calcMode="spline" keySplines="0.45 0 0.55 1;0.45 0 0.55 1" keyTimes="0;0.5;1"/></rect><rect x="450" y="300" width="10" height="10" fill="#F7F6F3" opacity="0"><animate attributeName="opacity" values="0;0.85;0" dur="4.2s" begin="0.70s" repeatCount="indefinite" calcMode="spline" keySplines="0.45 0 0.55 1;0.45 0 0.55 1" keyTimes="0;0.5;1"/></rect>
<g opacity="0.25"><rect x="80" y="360" width="40" height="10" fill="#F7F6F3"/><rect x="110" y="370" width="10" height="10" fill="#F7F6F3"/><rect x="100" y="380" width="20" height="10" fill="#F7F6F3"/><rect x="100" y="390" width="10" height="10" fill="#F7F6F3"/><animate attributeName="opacity" values="0.25;0.9;0.25" dur="5.5s" begin="0.00s" repeatCount="indefinite" calcMode="spline" keySplines="0.45 0 0.55 1;0.45 0 0.55 1" keyTimes="0;0.5;1"/></g><g opacity="0.25"><rect x="120" y="360" width="40" height="10" fill="#F7F6F3"/><rect x="150" y="370" width="10" height="10" fill="#F7F6F3"/><rect x="140" y="380" width="20" height="10" fill="#F7F6F3"/><rect x="140" y="390" width="10" height="10" fill="#F7F6F3"/><animate attributeName="opacity" values="0.25;0.9;0.25" dur="5.5s" begin="0.18s" repeatCount="indefinite" calcMode="spline" keySplines="0.45 0 0.55 1;0.45 0 0.55 1" keyTimes="0;0.5;1"/></g><g opacity="0.25"><rect x="160" y="360" width="40" height="10" fill="#F7F6F3"/><rect x="190" y="370" width="10" height="10" fill="#F7F6F3"/><rect x="180" y="380" width="20" height="10" fill="#F7F6F3"/><rect x="180" y="390" width="10" height="10" fill="#F7F6F3"/><animate attributeName="opacity" values="0.25;0.9;0.25" dur="5.5s" begin="0.36s" repeatCount="indefinite" calcMode="spline" keySplines="0.45 0 0.55 1;0.45 0 0.55 1" keyTimes="0;0.5;1"/></g><g opacity="0.25"><rect x="200" y="360" width="40" height="10" fill="#F7F6F3"/><rect x="230" y="370" width="10" height="10" fill="#F7F6F3"/><rect x="220" y="380" width="20" height="10" fill="#F7F6F3"/><rect x="220" y="390" width="10" height="10" fill="#F7F6F3"/><animate attributeName="opacity" values="0.25;0.9;0.25" dur="5.5s" begin="0.54s" repeatCount="indefinite" calcMode="spline" keySplines="0.45 0 0.55 1;0.45 0 0.55 1" keyTimes="0;0.5;1"/></g><g opacity="0.25"><rect x="240" y="360" width="40" height="10" fill="#F7F6F3"/><rect x="270" y="370" width="10" height="10" fill="#F7F6F3"/><rect x="260" y="380" width="20" height="10" fill="#F7F6F3"/><rect x="260" y="390" width="10" height="10" fill="#F7F6F3"/><animate attributeName="opacity" values="0.25;0.9;0.25" dur="5.5s" begin="0.72s" repeatCount="indefinite" calcMode="spline" keySplines="0.45 0 0.55 1;0.45 0 0.55 1" keyTimes="0;0.5;1"/></g><g opacity="0.25"><rect x="280" y="360" width="40" height="10" fill="#F7F6F3"/><rect x="310" y="370" width="10" height="10" fill="#F7F6F3"/><rect x="300" y="380" width="20" height="10" fill="#F7F6F3"/><rect x="300" y="390" width="10" height="10" fill="#F7F6F3"/><animate attributeName="opacity" values="0.25;0.9;0.25" dur="5.5s" begin="0.90s" repeatCount="indefinite" calcMode="spline" keySplines="0.45 0 0.55 1;0.45 0 0.55 1" keyTimes="0;0.5;1"/></g><g opacity="0.25"><rect x="320" y="360" width="40" height="10" fill="#F7F6F3"/><rect x="350" y="370" width="10" height="10" fill="#F7F6F3"/><rect x="340" y="380" width="20" height="10" fill="#F7F6F3"/><rect x="340" y="390" width="10" height="10" fill="#F7F6F3"/><animate attributeName="opacity" values="0.25;0.9;0.25" dur="5.5s" begin="1.08s" repeatCount="indefinite" calcMode="spline" keySplines="0.45 0 0.55 1;0.45 0 0.55 1" keyTimes="0;0.5;1"/></g><g opacity="0.25"><rect x="360" y="360" width="40" height="10" fill="#F7F6F3"/><rect x="390" y="370" width="10" height="10" fill="#F7F6F3"/><rect x="380" y="380" width="20" height="10" fill="#F7F6F3"/><rect x="380" y="390" width="10" height="10" fill="#F7F6F3"/><animate attributeName="opacity" values="0.25;0.9;0.25" dur="5.5s" begin="1.26s" repeatCount="indefinite" calcMode="spline" keySplines="0.45 0 0.55 1;0.45 0 0.55 1" keyTimes="0;0.5;1"/></g><g opacity="0.25"><rect x="400" y="360" width="40" height="10" fill="#F7F6F3"/><rect x="430" y="370" width="10" height="10" fill="#F7F6F3"/><rect x="420" y="380" width="20" height="10" fill="#F7F6F3"/><rect x="420" y="390" width="10" height="10" fill="#F7F6F3"/><animate attributeName="opacity" values="0.25;0.9;0.25" dur="5.5s" begin="1.44s" repeatCount="indefinite" calcMode="spline" keySplines="0.45 0 0.55 1;0.45 0 0.55 1" keyTimes="0;0.5;1"/></g><g opacity="0.25"><rect x="440" y="360" width="40" height="10" fill="#F7F6F3"/><rect x="470" y="370" width="10" height="10" fill="#F7F6F3"/><rect x="460" y="380" width="20" height="10" fill="#F7F6F3"/><rect x="460" y="390" width="10" height="10" fill="#F7F6F3"/><animate attributeName="opacity" values="0.25;0.9;0.25" dur="5.5s" begin="1.62s" repeatCount="indefinite" calcMode="spline" keySplines="0.45 0 0.55 1;0.45 0 0.55 1" keyTimes="0;0.5;1"/></g><g opacity="0.25"><rect x="480" y="360" width="40" height="10" fill="#F7F6F3"/><rect x="510" y="370" width="10" height="10" fill="#F7F6F3"/><rect x="500" y="380" width="20" height="10" fill="#F7F6F3"/><rect x="500" y="390" width="10" height="10" fill="#F7F6F3"/><animate attributeName="opacity" values="0.25;0.9;0.25" dur="5.5s" begin="1.80s" repeatCount="indefinite" calcMode="spline" keySplines="0.45 0 0.55 1;0.45 0 0.55 1" keyTimes="0;0.5;1"/></g><g opacity="0.25"><rect x="520" y="360" width="40" height="10" fill="#F7F6F3"/><rect x="550" y="370" width="10" height="10" fill="#F7F6F3"/><rect x="540" y="380" width="20" height="10" fill="#F7F6F3"/><rect x="540" y="390" width="10" height="10" fill="#F7F6F3"/><animate attributeName="opacity" values="0.25;0.9;0.25" dur="5.5s" begin="1.98s" repeatCount="indefinite" calcMode="spline" keySplines="0.45 0 0.55 1;0.45 0 0.55 1" keyTimes="0;0.5;1"/></g>
<!-- gorgoneion: medusa mitologica, serpientes vivas -->
<path d="M 260 110 Q 230 90 240 60 Q 210 40 220 20" fill="none" stroke="#955D47" stroke-width="14" stroke-linecap="round"><animate attributeName="d" values="M 260 110 Q 230 90 240 60 Q 210 40 220 20;M 260 110 Q 290 90 260 60 Q 310 40 260 20;M 260 110 Q 230 90 240 60 Q 210 40 220 20" dur="2.8s" begin="0.00s" repeatCount="indefinite" calcMode="spline" keySplines="0.45 0 0.55 1;0.45 0 0.55 1" keyTimes="0;0.5;1"/></path><path d="M 320 100 Q 300 70 330 50 Q 310 20 330 10" fill="none" stroke="#955D47" stroke-width="14" stroke-linecap="round"><animate attributeName="d" values="M 320 100 Q 300 70 330 50 Q 310 20 330 10;M 320 100 Q 340 70 320 50 Q 330 20 320 10;M 320 100 Q 300 70 330 50 Q 310 20 330 10" dur="3.25s" begin="0.45s" repeatCount="indefinite" calcMode="spline" keySplines="0.45 0 0.55 1;0.45 0 0.55 1" keyTimes="0;0.5;1"/></path><path d="M 380 110 Q 410 90 400 60 Q 430 40 420 20" fill="none" stroke="#955D47" stroke-width="14" stroke-linecap="round"><animate attributeName="d" values="M 380 110 Q 410 90 400 60 Q 430 40 420 20;M 380 110 Q 350 90 380 60 Q 330 40 380 20;M 380 110 Q 410 90 400 60 Q 430 40 420 20" dur="3.6999999999999997s" begin="0.90s" repeatCount="indefinite" calcMode="spline" keySplines="0.45 0 0.55 1;0.45 0 0.55 1" keyTimes="0;0.5;1"/></path><path d="M 240 130 Q 210 120 190 130 Q 170 120 150 100" fill="none" stroke="#955D47" stroke-width="14" stroke-linecap="round"><animate attributeName="d" values="M 240 130 Q 210 120 190 130 Q 170 120 150 100;M 240 130 Q 270 120 240 130 Q 310 120 240 100;M 240 130 Q 210 120 190 130 Q 170 120 150 100" dur="4.15s" begin="1.35s" repeatCount="indefinite" calcMode="spline" keySplines="0.45 0 0.55 1;0.45 0 0.55 1" keyTimes="0;0.5;1"/></path><path d="M 400 130 Q 430 120 450 130 Q 470 120 490 100" fill="none" stroke="#955D47" stroke-width="14" stroke-linecap="round"><animate attributeName="d" values="M 400 130 Q 430 120 450 130 Q 470 120 490 100;M 400 130 Q 370 120 400 130 Q 330 120 400 100;M 400 130 Q 430 120 450 130 Q 470 120 490 100" dur="2.8s" begin="1.80s" repeatCount="indefinite" calcMode="spline" keySplines="0.45 0 0.55 1;0.45 0 0.55 1" keyTimes="0;0.5;1"/></path><path d="M 230 180 Q 200 180 180 200 Q 160 190 140 210" fill="none" stroke="#955D47" stroke-width="14" stroke-linecap="round"><animate attributeName="d" values="M 230 180 Q 200 180 180 200 Q 160 190 140 210;M 230 180 Q 260 180 230 200 Q 300 190 230 210;M 230 180 Q 200 180 180 200 Q 160 190 140 210" dur="3.25s" begin="2.25s" repeatCount="indefinite" calcMode="spline" keySplines="0.45 0 0.55 1;0.45 0 0.55 1" keyTimes="0;0.5;1"/></path><path d="M 410 180 Q 440 180 460 200 Q 480 190 500 210" fill="none" stroke="#955D47" stroke-width="14" stroke-linecap="round"><animate attributeName="d" values="M 410 180 Q 440 180 460 200 Q 480 190 500 210;M 410 180 Q 380 180 410 200 Q 340 190 410 210;M 410 180 Q 440 180 460 200 Q 480 190 500 210" dur="3.6999999999999997s" begin="2.70s" repeatCount="indefinite" calcMode="spline" keySplines="0.45 0 0.55 1;0.45 0 0.55 1" keyTimes="0;0.5;1"/></path><path d="M 250 240 Q 220 250 200 270 Q 180 300 170 330" fill="none" stroke="#955D47" stroke-width="14" stroke-linecap="round"><animate attributeName="d" values="M 250 240 Q 220 250 200 270 Q 180 300 170 330;M 250 240 Q 280 250 250 270 Q 320 300 250 330;M 250 240 Q 220 250 200 270 Q 180 300 170 330" dur="4.15s" begin="0.15s" repeatCount="indefinite" calcMode="spline" keySplines="0.45 0 0.55 1;0.45 0 0.55 1" keyTimes="0;0.5;1"/></path><path d="M 390 240 Q 420 250 440 270 Q 460 300 470 330" fill="none" stroke="#955D47" stroke-width="14" stroke-linecap="round"><animate attributeName="d" values="M 390 240 Q 420 250 440 270 Q 460 300 470 330;M 390 240 Q 360 250 390 270 Q 320 300 390 330;M 390 240 Q 420 250 440 270 Q 460 300 470 330" dur="2.8s" begin="0.60s" repeatCount="indefinite" calcMode="spline" keySplines="0.45 0 0.55 1;0.45 0 0.55 1" keyTimes="0;0.5;1"/></path>
<rect x="290" y="110" width="70" height="10" fill="#F7F6F3"/><rect x="270" y="120" width="110" height="10" fill="#F7F6F3"/><rect x="260" y="130" width="130" height="10" fill="#F7F6F3"/><rect x="250" y="140" width="150" height="10" fill="#F7F6F3"/><rect x="250" y="150" width="150" height="10" fill="#F7F6F3"/><rect x="250" y="160" width="150" height="10" fill="#F7F6F3"/><rect x="250" y="170" width="150" height="10" fill="#F7F6F3"/><rect x="250" y="180" width="150" height="10" fill="#F7F6F3"/><rect x="250" y="190" width="150" height="10" fill="#F7F6F3"/><rect x="250" y="200" width="150" height="10" fill="#F7F6F3"/><rect x="250" y="210" width="150" height="10" fill="#F7F6F3"/><rect x="250" y="220" width="150" height="10" fill="#F7F6F3"/><rect x="250" y="230" width="150" height="10" fill="#F7F6F3"/><rect x="250" y="240" width="150" height="10" fill="#F7F6F3"/><rect x="260" y="250" width="130" height="10" fill="#F7F6F3"/><rect x="280" y="260" width="90" height="10" fill="#F7F6F3"/><rect x="300" y="270" width="50" height="10" fill="#F7F6F3"/><rect x="380" y="140" width="10" height="10" fill="#1A1A1A"/><rect x="250" y="140" width="10" height="10" fill="#BCBAB5"/><rect x="390" y="150" width="10" height="10" fill="#1A1A1A"/><rect x="250" y="150" width="10" height="10" fill="#BCBAB5"/><rect x="380" y="160" width="10" height="10" fill="#1A1A1A"/><rect x="250" y="160" width="10" height="10" fill="#BCBAB5"/><rect x="390" y="170" width="10" height="10" fill="#1A1A1A"/><rect x="250" y="170" width="10" height="10" fill="#BCBAB5"/><rect x="380" y="180" width="10" height="10" fill="#1A1A1A"/><rect x="250" y="180" width="10" height="10" fill="#BCBAB5"/><rect x="390" y="190" width="10" height="10" fill="#1A1A1A"/><rect x="250" y="190" width="10" height="10" fill="#BCBAB5"/><rect x="380" y="200" width="10" height="10" fill="#1A1A1A"/><rect x="250" y="200" width="10" height="10" fill="#BCBAB5"/><rect x="390" y="210" width="10" height="10" fill="#1A1A1A"/><rect x="250" y="210" width="10" height="10" fill="#BCBAB5"/><rect x="380" y="220" width="10" height="10" fill="#1A1A1A"/><rect x="250" y="220" width="10" height="10" fill="#BCBAB5"/><rect x="390" y="230" width="10" height="10" fill="#1A1A1A"/><rect x="250" y="230" width="10" height="10" fill="#BCBAB5"/><rect x="380" y="240" width="10" height="10" fill="#1A1A1A"/><rect x="250" y="240" width="10" height="10" fill="#BCBAB5"/><rect x="260" y="130" width="10" height="10" fill="#BCBAB5"/><rect x="260" y="250" width="10" height="10" fill="#BCBAB5"/><rect x="280" y="260" width="10" height="10" fill="#BCBAB5"/><rect x="270" y="120" width="10" height="10" fill="#BCBAB5"/><rect x="340" y="250" width="10" height="10" fill="#1A1A1A"/><rect x="320" y="260" width="10" height="10" fill="#1A1A1A"/><rect x="270" y="100" width="110" height="10" fill="#955D47"/><rect x="260" y="110" width="130" height="10" fill="#955D47"/><rect x="250" y="120" width="10" height="20" fill="#955D47"/><rect x="380" y="120" width="10" height="20" fill="#955D47"/><rect x="320" y="170" width="10" height="30" fill="#1A1A1A"/><rect x="270" y="160" width="20" height="20" fill="#1A1A1A"/><rect x="270" y="160" width="10" height="10" fill="#F7F6F3"/><rect x="360" y="160" width="20" height="20" fill="#1A1A1A"/><rect x="360" y="160" width="10" height="10" fill="#F7F6F3"/><rect x="260" y="150" width="40" height="40" fill="none" stroke="#955D47" stroke-width="10" opacity="0"><animate attributeName="opacity" values="0;0.5;0" dur="6.5s" begin="0s" repeatCount="indefinite" calcMode="spline" keySplines="0.45 0 0.55 1;0.45 0 0.55 1" keyTimes="0;0.5;1"/></rect><rect x="350" y="150" width="40" height="40" fill="none" stroke="#955D47" stroke-width="10" opacity="0"><animate attributeName="opacity" values="0;0.5;0" dur="6.5s" begin="0s" repeatCount="indefinite" calcMode="spline" keySplines="0.45 0 0.55 1;0.45 0 0.55 1" keyTimes="0;0.5;1"/></rect><rect x="280" y="220" width="90" height="10" fill="#1A1A1A"/><rect x="280" y="230" width="10" height="10" fill="#1A1A1A"/><rect x="360" y="230" width="10" height="10" fill="#1A1A1A"/><rect x="290" y="230" width="10" height="10" fill="#1A1A1A"/><rect x="350" y="230" width="10" height="10" fill="#1A1A1A"/><g id="lengua"><rect x="310" y="230" width="30" height="30" fill="#955D47"/><rect x="320" y="260" width="10" height="10" fill="#955D47"><animate attributeName="opacity" values="0;1;0" dur="5s" begin="1.2s" repeatCount="indefinite" calcMode="spline" keySplines="0.45 0 0.55 1;0.45 0 0.55 1" keyTimes="0;0.5;1"/></rect><animate attributeName="opacity" values="0.75;1;0.75" dur="5s" begin="0s" repeatCount="indefinite" calcMode="spline" keySplines="0.45 0 0.55 1;0.45 0 0.55 1" keyTimes="0;0.5;1"/></g>
</svg>