<svg xmlns="http://www.w3.org/2000/svg" width="640" height="400" viewBox="0 0 640 400">
<rect x="0" y="0" width="640" height="400" fill="#0D0C0B"/>
<ellipse cx="380" cy="200" rx="220" ry="200" fill="#955D47" opacity="0.07">
<animate attributeName="opacity" values="0.07;0.16;0.07" dur="14s" repeatCount="indefinite" calcMode="spline" keySplines="0.45 0 0.55 1;0.45 0 0.55 1" keyTimes="0;0.5;1"/></ellipse>
<rect x="380" y="20" width="10" height="10" fill="#1A1A1A"/><rect x="320" y="40" width="10" height="10" fill="#1A1A1A"/><rect x="360" y="40" width="10" height="10" fill="#1A1A1A"/><rect x="400" y="40" width="10" height="10" fill="#1A1A1A"/><rect x="440" y="40" width="10" height="10" fill="#1A1A1A"/><rect x="300" y="60" width="10" height="10" fill="#1A1A1A"/><rect x="340" y="60" width="10" height="10" fill="#1A1A1A"/><rect x="380" y="60" width="10" height="10" fill="#1A1A1A"/><rect x="420" y="60" width="10" height="10" fill="#1A1A1A"/><rect x="460" y="60" width="10" height="10" fill="#1A1A1A"/><rect x="280" y="80" width="10" height="10" fill="#1A1A1A"/><rect x="480" y="80" width="10" height="10" fill="#1A1A1A"/><rect x="260" y="100" width="10" height="10" fill="#1A1A1A"/><rect x="500" y="100" width="10" height="10" fill="#1A1A1A"/><rect x="240" y="120" width="10" height="10" fill="#1A1A1A"/><rect x="520" y="120" width="10" height="10" fill="#1A1A1A"/><rect x="220" y="140" width="10" height="10" fill="#1A1A1A"/><rect x="540" y="140" width="10" height="10" fill="#1A1A1A"/><rect x="240" y="160" width="10" height="10" fill="#1A1A1A"/><rect x="520" y="160" width="10" height="10" fill="#1A1A1A"/><rect x="220" y="180" width="10" height="10" fill="#1A1A1A"/><rect x="540" y="180" width="10" height="10" fill="#1A1A1A"/><rect x="200" y="200" width="10" height="10" fill="#1A1A1A"/><rect x="240" y="200" width="10" height="10" fill="#1A1A1A"/><rect x="520" y="200" width="10" height="10" fill="#1A1A1A"/><rect x="220" y="220" width="10" height="10" fill="#1A1A1A"/><rect x="540" y="220" width="10" height="10" fill="#1A1A1A"/><rect x="240" y="240" width="10" height="10" fill="#1A1A1A"/><rect x="520" y="240" width="10" height="10" fill="#1A1A1A"/><rect x="220" y="260" width="10" height="10" fill="#1A1A1A"/><rect x="540" y="260" width="10" height="10" fill="#1A1A1A"/><rect x="240" y="280" width="10" height="10" fill="#1A1A1A"/><rect x="520" y="280" width="10" height="10" fill="#1A1A1A"/><rect x="260" y="300" width="10" height="10" fill="#1A1A1A"/><rect x="500" y="300" width="10" height="10" fill="#1A1A1A"/><rect x="280" y="320" width="10" height="10" fill="#1A1A1A"/><rect x="480" y="320" width="10" height="10" fill="#1A1A1A"/><rect x="300" y="340" width="10" height="10" fill="#1A1A1A"/><rect x="340" y="340" width="10" height="10" fill="#1A1A1A"/><rect x="380" y="340" width="10" height="10" fill="#1A1A1A"/><rect x="420" y="340" width="10" height="10" fill="#1A1A1A"/><rect x="460" y="340" width="10" height="10" fill="#1A1A1A"/><rect x="320" y="360" width="10" height="10" fill="#1A1A1A"/><rect x="360" y="360" width="10" height="10" fill="#1A1A1A"/><rect x="400" y="360" width="10" height="10" fill="#1A1A1A"/><rect x="440" y="360" width="10" height="10" fill="#1A1A1A"/><rect x="340" y="80" width="10" height="10" fill="#1A1A1A"/><rect x="380" y="80" width="10" height="10" fill="#1A1A1A"/><rect x="420" y="80" width="10" height="10" fill="#1A1A1A"/><rect x="320" y="100" width="10" height="10" fill="#1A1A1A"/><rect x="360" y="100" width="10" height="10" fill="#1A1A1A"/><rect x="400" y="100" width="10" height="10" fill="#1A1A1A"/><rect x="440" y="100" width="10" height="10" fill="#1A1A1A"/><rect x="300" y="120" width="10" height="10" fill="#1A1A1A"/><rect x="460" y="120" width="10" height="10" fill="#1A1A1A"/><rect x="280" y="140" width="10" height="10" fill="#1A1A1A"/><rect x="480" y="140" width="10" height="10" fill="#1A1A1A"/><rect x="260" y="160" width="10" height="10" fill="#1A1A1A"/><rect x="500" y="160" width="10" height="10" fill="#1A1A1A"/><rect x="280" y="180" width="10" height="10" fill="#1A1A1A"/><rect x="480" y="180" width="10" height="10" fill="#1A1A1A"/><rect x="260" y="200" width="10" height="10" fill="#1A1A1A"/><rect x="500" y="200" width="10" height="10" fill="#1A1A1A"/><rect x="280" y="220" width="10" height="10" fill="#1A1A1A"/><rect x="480" y="220" width="10" height="10" fill="#1A1A1A"/><rect x="260" y="240" width="10" height="10" fill="#1A1A1A"/><rect x="500" y="240" width="10" height="10" fill="#1A1A1A"/><rect x="280" y="260" width="10" height="10" fill="#1A1A1A"/><rect x="480" y="260" width="10" height="10" fill="#1A1A1A"/><rect x="300" y="280" width="10" height="10" fill="#1A1A1A"/><rect x="460" y="280" width="10" height="10" fill="#1A1A1A"/><rect x="320" y="300" width="10" height="10" fill="#1A1A1A"/><rect x="360" y="300" width="10" height="10" fill="#1A1A1A"/><rect x="400" y="300" width="10" height="10" fill="#1A1A1A"/><rect x="440" y="300" width="10" height="10" fill="#1A1A1A"/><rect x="340" y="320" width="10" height="10" fill="#1A1A1A"/><rect x="380" y="320" width="10" height="10" fill="#1A1A1A"/><rect x="420" y="320" width="10" height="10" fill="#1A1A1A"/><rect x="380" y="100" width="10" height="10" fill="#1A1A1A"/><rect x="320" y="120" width="10" height="10" fill="#1A1A1A"/><rect x="360" y="120" width="10" height="10" fill="#1A1A1A"/><rect x="400" y="120" width="10" height="10" fill="#1A1A1A"/><rect x="440" y="120" width="10" height="10" fill="#1A1A1A"/><rect x="300" y="140" width="10" height="10" fill="#1A1A1A"/><rect x="340" y="140" width="10" height="10" fill="#1A1A1A"/><rect x="420" y="140" width="10" height="10" fill="#1A1A1A"/><rect x="460" y="140" width="10" height="10" fill="#1A1A1A"/><rect x="320" y="160" width="10" height="10" fill="#1A1A1A"/><rect x="440" y="160" width="10" height="10" fill="#1A1A1A"/><rect x="300" y="180" width="10" height="10" fill="#1A1A1A"/><rect x="460" y="180" width="10" height="10" fill="#1A1A1A"/><rect x="280" y="200" width="10" height="10" fill="#1A1A1A"/><rect x="300" y="220" width="10" height="10" fill="#1A1A1A"/><rect x="460" y="220" width="10" height="10" fill="#1A1A1A"/><rect x="320" y="240" width="10" height="10" fill="#1A1A1A"/><rect x="440" y="240" width="10" height="10" fill="#1A1A1A"/><rect x="300" y="260" width="10" height="10" fill="#1A1A1A"/><rect x="340" y="260" width="10" height="10" fill="#1A1A1A"/><rect x="420" y="260" width="10" height="10" fill="#1A1A1A"/><rect x="460" y="260" width="10" height="10" fill="#1A1A1A"/><rect x="320" y="280" width="10" height="10" fill="#1A1A1A"/><rect x="360" y="280" width="10" height="10" fill="#1A1A1A"/><rect x="400" y="280" width="10" height="10" fill="#1A1A1A"/><rect x="440" y="280" width="10" height="10" fill="#1A1A1A"/>
<g><animateTransform attributeName="transform" type="translate" values="0 0;0 -14;0 0" dur="7s" repeatCount="indefinite" calcMode="spline" keySplines="0.45 0 0.55 1;0.45 0 0.55 1" keyTimes="0;0.5;1"/>
<path d="M 90 330 Q 100 200 190 100" fill="none" stroke="#F7F6F3" stroke-width="6" stroke-linecap="round" pathLength="1" stroke-dasharray="1" stroke-dashoffset="1">
<animate attributeName="stroke-dashoffset" from="1" to="0" begin="0.9s" dur="1.6s" fill="freeze" calcMode="spline" keySplines="0.16 1 0.3 1" keyTimes="0;1"/></path>
<g opacity="0"><rect x="80" y="290" width="30" height="10" fill="#F7F6F3"/><rect x="90" y="280" width="20" height="10" fill="#F7F6F3"/><animate attributeName="opacity" from="0" to="1" begin="1.30s" dur="0.7s" fill="freeze"/></g><g opacity="0"><rect x="110" y="250" width="30" height="10" fill="#F7F6F3"/><rect x="120" y="240" width="20" height="10" fill="#F7F6F3"/><animate attributeName="opacity" from="0" to="1" begin="1.48s" dur="0.7s" fill="freeze"/></g><g opacity="0"><rect x="100" y="210" width="30" height="10" fill="#F7F6F3"/><rect x="110" y="200" width="20" height="10" fill="#F7F6F3"/><animate attributeName="opacity" from="0" to="1" begin="1.66s" dur="0.7s" fill="freeze"/></g><g opacity="0"><rect x="130" y="170" width="30" height="10" fill="#F7F6F3"/><rect x="140" y="160" width="20" height="10" fill="#F7F6F3"/><animate attributeName="opacity" from="0" to="1" begin="1.84s" dur="0.7s" fill="freeze"/></g><g opacity="0"><rect x="130" y="140" width="30" height="10" fill="#F7F6F3"/><rect x="140" y="130" width="20" height="10" fill="#F7F6F3"/><animate attributeName="opacity" from="0" to="1" begin="2.02s" dur="0.7s" fill="freeze"/></g><g opacity="0"><rect x="170" y="110" width="30" height="10" fill="#F7F6F3"/><rect x="180" y="100" width="20" height="10" fill="#F7F6F3"/><animate attributeName="opacity" from="0" to="1" begin="2.20s" dur="0.7s" fill="freeze"/></g></g>
<rect x="140" y="80" width="10" height="10" fill="#F7F6F3" opacity="0"><animate attributeName="opacity" values="0;0.85;0" dur="4.2s" begin="0.00s" repeatCount="indefinite" calcMode="spline" keySplines="0.45 0 0.55 1;0.45 0 0.55 1" keyTimes="0;0.5;1"/></rect><rect x="180" y="160" width="10" height="10" fill="#F7F6F3" opacity="0"><animate attributeName="opacity" values="0;0.85;0" dur="4.2s" begin="0.70s" repeatCount="indefinite" calcMode="spline" keySplines="0.45 0 0.55 1;0.45 0 0.55 1" keyTimes="0;0.5;1"/></rect><rect x="100" y="220" width="10" height="10" fill="#F7F6F3" opacity="0"><animate attributeName="opacity" values="0;0.85;0" dur="4.2s" begin="1.40s" repeatCount="indefinite" calcMode="spline" keySplines="0.45 0 0.55 1;0.45 0 0.55 1" keyTimes="0;0.5;1"/></rect><rect x="160" y="270" width="10" height="10" fill="#F7F6F3" opacity="0"><animate attributeName="opacity" values="0;0.85;0" dur="4.2s" begin="2.10s" repeatCount="indefinite" calcMode="spline" keySplines="0.45 0 0.55 1;0.45 0 0.55 1" keyTimes="0;0.5;1"/></rect><rect x="500" y="90" width="10" height="10" fill="#F7F6F3" opacity="0"><animate attributeName="opacity" values="0;0.85;0" dur="4.2s" begin="2.80s" repeatCount="indefinite" calcMode="spline" keySplines="0.45 0 0.55 1;0.45 0 0.55 1" keyTimes="0;0.5;1"/></rect><rect x="540" y="170" width="10" height="10" fill="#F7F6F3" opacity="0"><animate attributeName="opacity" values="0;0.85;0" dur="4.2s" begin="3.50s" repeatCount="indefinite" calcMode="spline" keySplines="0.45 0 0.55 1;0.45 0 0.55 1" keyTimes="0;0.5;1"/></rect><rect x="520" y="250" width="10" height="10" fill="#F7F6F3" opacity="0"><animate attributeName="opacity" values="0;0.85;0" dur="4.2s" begin="4.20s" repeatCount="indefinite" calcMode="spline" keySplines="0.45 0 0.55 1;0.45 0 0.55 1" keyTimes="0;0.5;1"/></rect><rect x="480" y="300" width="10" height="10" fill="#F7F6F3" opacity="0"><animate attributeName="opacity" values="0;0.85;0" dur="4.2s" begin="0.70s" repeatCount="indefinite" calcMode="spline" keySplines="0.45 0 0.55 1;0.45 0 0.55 1" keyTimes="0;0.5;1"/></rect><rect x="60" y="140" width="10" height="10" fill="#F7F6F3" opacity="0"><animate attributeName="opacity" values="0;0.85;0" dur="4.2s" begin="1.40s" repeatCount="indefinite" calcMode="spline" keySplines="0.45 0 0.55 1;0.45 0 0.55 1" keyTimes="0;0.5;1"/></rect><rect x="580" y="120" width="10" height="10" fill="#F7F6F3" opacity="0"><animate attributeName="opacity" values="0;0.85;0" dur="4.2s" begin="2.10s" repeatCount="indefinite" calcMode="spline" keySplines="0.45 0 0.55 1;0.45 0 0.55 1" keyTimes="0;0.5;1"/></rect>
<g opacity="0.25"><rect x="80" y="360" width="40" height="10" fill="#F7F6F3"/><rect x="110" y="370" width="10" height="10" fill="#F7F6F3"/><rect x="100" y="380" width="20" height="10" fill="#F7F6F3"/><rect x="100" y="390" width="10" height="10" fill="#F7F6F3"/><animate attributeName="opacity" values="0.25;0.9;0.25" dur="5.5s" begin="0.00s" repeatCount="indefinite" calcMode="spline" keySplines="0.45 0 0.55 1;0.45 0 0.55 1" keyTimes="0;0.5;1"/></g><g opacity="0.25"><rect x="120" y="360" width="40" height="10" fill="#F7F6F3"/><rect x="150" y="370" width="10" height="10" fill="#F7F6F3"/><rect x="140" y="380" width="20" height="10" fill="#F7F6F3"/><rect x="140" y="390" width="10" height="10" fill="#F7F6F3"/><animate attributeName="opacity" values="0.25;0.9;0.25" dur="5.5s" begin="0.18s" repeatCount="indefinite" calcMode="spline" keySplines="0.45 0 0.55 1;0.45 0 0.55 1" keyTimes="0;0.5;1"/></g><g opacity="0.25"><rect x="160" y="360" width="40" height="10" fill="#F7F6F3"/><rect x="190" y="370" width="10" height="10" fill="#F7F6F3"/><rect x="180" y="380" width="20" height="10" fill="#F7F6F3"/><rect x="180" y="390" width="10" height="10" fill="#F7F6F3"/><animate attributeName="opacity" values="0.25;0.9;0.25" dur="5.5s" begin="0.36s" repeatCount="indefinite" calcMode="spline" keySplines="0.45 0 0.55 1;0.45 0 0.55 1" keyTimes="0;0.5;1"/></g><g opacity="0.25"><rect x="200" y="360" width="40" height="10" fill="#F7F6F3"/><rect x="230" y="370" width="10" height="10" fill="#F7F6F3"/><rect x="220" y="380" width="20" height="10" fill="#F7F6F3"/><rect x="220" y="390" width="10" height="10" fill="#F7F6F3"/><animate attributeName="opacity" values="0.25;0.9;0.25" dur="5.5s" begin="0.54s" repeatCount="indefinite" calcMode="spline" keySplines="0.45 0 0.55 1;0.45 0 0.55 1" keyTimes="0;0.5;1"/></g><g opacity="0.25"><rect x="240" y="360" width="40" height="10" fill="#F7F6F3"/><rect x="270" y="370" width="10" height="10" fill="#F7F6F3"/><rect x="260" y="380" width="20" height="10" fill="#F7F6F3"/><rect x="260" y="390" width="10" height="10" fill="#F7F6F3"/><animate attributeName="opacity" values="0.25;0.9;0.25" dur="5.5s" begin="0.72s" repeatCount="indefinite" calcMode="spline" keySplines="0.45 0 0.55 1;0.45 0 0.55 1" keyTimes="0;0.5;1"/></g><g opacity="0.25"><rect x="280" y="360" width="40" height="10" fill="#F7F6F3"/><rect x="310" y="370" width="10" height="10" fill="#F7F6F3"/><rect x="300" y="380" width="20" height="10" fill="#F7F6F3"/><rect x="300" y="390" width="10" height="10" fill="#F7F6F3"/><animate attributeName="opacity" values="0.25;0.9;0.25" dur="5.5s" begin="0.90s" repeatCount="indefinite" calcMode="spline" keySplines="0.45 0 0.55 1;0.45 0 0.55 1" keyTimes="0;0.5;1"/></g><g opacity="0.25"><rect x="320" y="360" width="40" height="10" fill="#F7F6F3"/><rect x="350" y="370" width="10" height="10" fill="#F7F6F3"/><rect x="340" y="380" width="20" height="10" fill="#F7F6F3"/><rect x="340" y="390" width="10" height="10" fill="#F7F6F3"/><animate attributeName="opacity" values="0.25;0.9;0.25" dur="5.5s" begin="1.08s" repeatCount="indefinite" calcMode="spline" keySplines="0.45 0 0.55 1;0.45 0 0.55 1" keyTimes="0;0.5;1"/></g><g opacity="0.25"><rect x="360" y="360" width="40" height="10" fill="#F7F6F3"/><rect x="390" y="370" width="10" height="10" fill="#F7F6F3"/><rect x="380" y="380" width="20" height="10" fill="#F7F6F3"/><rect x="380" y="390" width="10" height="10" fill="#F7F6F3"/><animate attributeName="opacity" values="0.25;0.9;0.25" dur="5.5s" begin="1.26s" repeatCount="indefinite" calcMode="spline" keySplines="0.45 0 0.55 1;0.45 0 0.55 1" keyTimes="0;0.5;1"/></g><g opacity="0.25"><rect x="400" y="360" width="40" height="10" fill="#F7F6F3"/><rect x="430" y="370" width="10" height="10" fill="#F7F6F3"/><rect x="420" y="380" width="20" height="10" fill="#F7F6F3"/><rect x="420" y="390" width="10" height="10" fill="#F7F6F3"/><animate attributeName="opacity" values="0.25;0.9;0.25" dur="5.5s" begin="1.44s" repeatCount="indefinite" calcMode="spline" keySplines="0.45 0 0.55 1;0.45 0 0.55 1" keyTimes="0;0.5;1"/></g><g opacity="0.25"><rect x="440" y="360" width="40" height="10" fill="#F7F6F3"/><rect x="470" y="370" width="10" height="10" fill="#F7F6F3"/><rect x="460" y="380" width="20" height="10" fill="#F7F6F3"/><rect x="460" y="390" width="10" height="10" fill="#F7F6F3"/><animate attributeName="opacity" values="0.25;0.9;0.25" dur="5.5s" begin="1.62s" repeatCount="indefinite" calcMode="spline" keySplines="0.45 0 0.55 1;0.45 0 0.55 1" keyTimes="0;0.5;1"/></g><g opacity="0.25"><rect x="480" y="360" width="40" height="10" fill="#F7F6F3"/><rect x="510" y="370" width="10" height="10" fill="#F7F6F3"/><rect x="500" y="380" width="20" height="10" fill="#F7F6F3"/><rect x="500" y="390" width="10" height="10" fill="#F7F6F3"/><animate attributeName="opacity" values="0.25;0.9;0.25" dur="5.5s" begin="1.80s" repeatCount="indefinite" calcMode="spline" keySplines="0.45 0 0.55 1;0.45 0 0.55 1" keyTimes="0;0.5;1"/></g><g opacity="0.25"><rect x="520" y="360" width="40" height="10" fill="#F7F6F3"/><rect x="550" y="370" width="10" height="10" fill="#F7F6F3"/><rect x="540" y="380" width="20" height="10" fill="#F7F6F3"/><rect x="540" y="390" width="10" height="10" fill="#F7F6F3"/><animate attributeName="opacity" values="0.25;0.9;0.25" dur="5.5s" begin="1.98s" repeatCount="indefinite" calcMode="spline" keySplines="0.45 0 0.55 1;0.45 0 0.55 1" keyTimes="0;0.5;1"/></g>
<path d="M 330 50 H 440 H 460 V 70 H 470 V 80 H 430 V 90 V 100 V 110 V 120 V 130 H 470 V 140 H 490 V 150 H 500 V 160 H 510 V 170 V 180 V 190 V 200 V 210 V 220 V 230 V 240 V 250 H 500 V 260 H 490 V 270 H 480 V 280 H 460 V 290 H 450 V 300 H 440 V 310 H 420 V 320 V 330 H 440 V 340 H 450 V 350 V 360 H 320 V 340 V 330 H 330 V 320 H 350 V 310 V 300 H 330 V 290 H 320 V 280 H 310 V 270 H 290 V 260 H 280 V 250 H 270 V 240 H 260 V 230 V 220 V 210 V 200 V 190 V 180 V 170 V 160 V 150 H 270 V 140 H 280 V 130 H 290 V 120 H 340 V 110 V 100 V 90 V 80 V 70 H 300 V 60 H 310 V 50 H 330 Z" fill="none" stroke="#F7F6F3" stroke-width="8" stroke-linecap="square" pathLength="1" stroke-dasharray="1" stroke-dashoffset="1">
<animate attributeName="stroke-dashoffset" from="1" to="0" begin="0.15s" dur="2.4s" fill="freeze" calcMode="spline" keySplines="0.16 1 0.3 1" keyTimes="0;1"/>
<animate attributeName="stroke-opacity" from="1" to="0.35" begin="2.55s" dur="1s" fill="freeze"/></path>
<path d="M 310 80 H 290 V 130 H 310" fill="none" stroke="#F7F6F3" stroke-width="8" stroke-linecap="square" pathLength="1" stroke-dasharray="1" stroke-dashoffset="1">
<animate attributeName="stroke-dashoffset" from="1" to="0" begin="0.55s" dur="1.2s" fill="freeze" calcMode="spline" keySplines="0.16 1 0.3 1" keyTimes="0;1"/>
<animate attributeName="stroke-opacity" from="1" to="0.35" begin="2.9s" dur="1s" fill="freeze"/></path>
<path d="M 450 80 H 470 V 130 H 450" fill="none" stroke="#F7F6F3" stroke-width="8" stroke-linecap="square" pathLength="1" stroke-dasharray="1" stroke-dashoffset="1">
<animate attributeName="stroke-dashoffset" from="1" to="0" begin="0.7s" dur="1.2s" fill="freeze" calcMode="spline" keySplines="0.16 1 0.3 1" keyTimes="0;1"/>
<animate attributeName="stroke-opacity" from="1" to="0.35" begin="3.05s" dur="1s" fill="freeze"/></path>
<g opacity="0"><rect x="330" y="50" width="110" height="10" fill="#955D47"/><rect x="310" y="60" width="150" height="10" fill="#955D47"/><rect x="300" y="70" width="170" height="10" fill="#955D47"/><rect x="340" y="80" width="90" height="50" fill="#955D47"/><rect x="290" y="80" width="20" height="10" fill="#955D47"/><rect x="280" y="90" width="20" height="30" fill="#955D47"/><rect x="290" y="120" width="20" height="10" fill="#955D47"/><rect x="300" y="130" width="20" height="10" fill="#955D47"/><rect x="450" y="80" width="20" height="10" fill="#955D47"/><rect x="460" y="90" width="20" height="30" fill="#955D47"/><rect x="450" y="120" width="20" height="10" fill="#955D47"/><rect x="440" y="130" width="20" height="10" fill="#955D47"/><rect x="290" y="130" width="180" height="10" fill="#955D47"/><rect x="280" y="140" width="210" height="10" fill="#955D47"/><rect x="270" y="150" width="230" height="10" fill="#955D47"/><rect x="260" y="160" width="250" height="90" fill="#955D47"/><rect x="270" y="250" width="230" height="10" fill="#955D47"/><rect x="280" y="260" width="210" height="10" fill="#955D47"/><rect x="290" y="270" width="190" height="10" fill="#955D47"/><rect x="310" y="280" width="150" height="10" fill="#955D47"/><rect x="320" y="290" width="130" height="10" fill="#955D47"/><rect x="330" y="300" width="110" height="10" fill="#955D47"/><rect x="350" y="310" width="70" height="20" fill="#955D47"/><rect x="330" y="330" width="110" height="10" fill="#955D47"/><rect x="320" y="340" width="130" height="10" fill="#955D47"/><rect x="350" y="90" width="70" height="10" fill="#F7F6F3"/><rect x="290" y="140" width="190" height="10" fill="#F7F6F3"/><rect x="280" y="180" width="40" height="10" fill="#F7F6F3"/><rect x="310" y="190" width="10" height="10" fill="#F7F6F3"/><rect x="300" y="200" width="20" height="10" fill="#F7F6F3"/><rect x="300" y="210" width="10" height="10" fill="#F7F6F3"/><rect x="320" y="180" width="40" height="10" fill="#F7F6F3"/><rect x="350" y="190" width="10" height="10" fill="#F7F6F3"/><rect x="340" y="200" width="20" height="10" fill="#F7F6F3"/><rect x="340" y="210" width="10" height="10" fill="#F7F6F3"/><rect x="360" y="180" width="40" height="10" fill="#F7F6F3"/><rect x="390" y="190" width="10" height="10" fill="#F7F6F3"/><rect x="380" y="200" width="20" height="10" fill="#F7F6F3"/><rect x="380" y="210" width="10" height="10" fill="#F7F6F3"/><rect x="400" y="180" width="40" height="10" fill="#F7F6F3"/><rect x="430" y="190" width="10" height="10" fill="#F7F6F3"/><rect x="420" y="200" width="20" height="10" fill="#F7F6F3"/><rect x="420" y="210" width="10" height="10" fill="#F7F6F3"/><rect x="440" y="180" width="40" height="10" fill="#F7F6F3"/><rect x="470" y="190" width="10" height="10" fill="#F7F6F3"/><rect x="460" y="200" width="20" height="10" fill="#F7F6F3"/><rect x="460" y="210" width="10" height="10" fill="#F7F6F3"/><rect x="270" y="170" width="230" height="10" fill="#F7F6F3"/><rect x="270" y="220" width="230" height="10" fill="#F7F6F3"/><rect x="340" y="330" width="90" height="10" fill="#F7F6F3"/><rect x="260" y="160" width="10" height="10" fill="#0D0C0B"/><rect x="280" y="160" width="10" height="10" fill="#0D0C0B"/><rect x="300" y="160" width="10" height="10" fill="#0D0C0B"/><rect x="320" y="160" width="10" height="10" fill="#0D0C0B"/><rect x="340" y="160" width="10" height="10" fill="#0D0C0B"/><rect x="360" y="160" width="10" height="10" fill="#0D0C0B"/><rect x="380" y="160" width="10" height="10" fill="#0D0C0B"/><rect x="400" y="160" width="10" height="10" fill="#0D0C0B"/><rect x="420" y="160" width="10" height="10" fill="#0D0C0B"/><rect x="440" y="160" width="10" height="10" fill="#0D0C0B"/><rect x="460" y="160" width="10" height="10" fill="#0D0C0B"/><rect x="480" y="160" width="10" height="10" fill="#0D0C0B"/><rect x="500" y="160" width="10" height="10" fill="#0D0C0B"/><rect x="270" y="170" width="10" height="10" fill="#0D0C0B"/><rect x="290" y="170" width="10" height="10" fill="#0D0C0B"/><rect x="310" y="170" width="10" height="10" fill="#0D0C0B"/><rect x="330" y="170" width="10" height="10" fill="#0D0C0B"/><rect x="350" y="170" width="10" height="10" fill="#0D0C0B"/><rect x="370" y="170" width="10" height="10" fill="#0D0C0B"/><rect x="390" y="170" width="10" height="10" fill="#0D0C0B"/><rect x="410" y="170" width="10" height="10" fill="#0D0C0B"/><rect x="430" y="170" width="10" height="10" fill="#0D0C0B"/><rect x="450" y="170" width="10" height="10" fill="#0D0C0B"/><rect x="470" y="170" width="10" height="10" fill="#0D0C0B"/><rect x="490" y="170" width="10" height="10" fill="#0D0C0B"/><rect x="280" y="180" width="10" height="10" fill="#0D0C0B"/><rect x="300" y="180" width="10" height="10" fill="#0D0C0B"/><rect x="320" y="180" width="10" height="10" fill="#0D0C0B"/><rect x="340" y="180" width="10" height="10" fill="#0D0C0B"/><rect x="360" y="180" width="10" height="10" fill="#0D0C0B"/><rect x="380" y="180" width="10" height="10" fill="#0D0C0B"/><rect x="400" y="180" width="10" height="10" fill="#0D0C0B"/><rect x="420" y="180" width="10" height="10" fill="#0D0C0B"/><rect x="440" y="180" width="10" height="10" fill="#0D0C0B"/><rect x="460" y="180" width="10" height="10" fill="#0D0C0B"/><rect x="480" y="180" width="10" height="10" fill="#0D0C0B"/><rect x="500" y="180" width="10" height="10" fill="#0D0C0B"/><rect x="270" y="190" width="10" height="10" fill="#0D0C0B"/><rect x="290" y="190" width="10" height="10" fill="#0D0C0B"/><rect x="310" y="190" width="10" height="10" fill="#0D0C0B"/><rect x="330" y="190" width="10" height="10" fill="#0D0C0B"/><rect x="350" y="190" width="10" height="10" fill="#0D0C0B"/><rect x="370" y="190" width="10" height="10" fill="#0D0C0B"/><rect x="390" y="190" width="10" height="10" fill="#0D0C0B"/><rect x="410" y="190" width="10" height="10" fill="#0D0C0B"/><rect x="430" y="190" width="10" height="10" fill="#0D0C0B"/><rect x="450" y="190" width="10" height="10" fill="#0D0C0B"/><rect x="470" y="190" width="10" height="10" fill="#0D0C0B"/><rect x="490" y="190" width="10" height="10" fill="#0D0C0B"/><rect x="280" y="200" width="10" height="10" fill="#0D0C0B"/><rect x="300" y="200" width="10" height="10" fill="#0D0C0B"/><rect x="320" y="200" width="10" height="10" fill="#0D0C0B"/><rect x="340" y="200" width="10" height="10" fill="#0D0C0B"/><rect x="360" y="200" width="10" height="10" fill="#0D0C0B"/><rect x="380" y="200" width="10" height="10" fill="#0D0C0B"/><rect x="400" y="200" width="10" height="10" fill="#0D0C0B"/><rect x="420" y="200" width="10" height="10" fill="#0D0C0B"/><rect x="440" y="200" width="10" height="10" fill="#0D0C0B"/><rect x="460" y="200" width="10" height="10" fill="#0D0C0B"/><rect x="480" y="200" width="10" height="10" fill="#0D0C0B"/><rect x="500" y="200" width="10" height="10" fill="#0D0C0B"/><rect x="270" y="210" width="10" height="10" fill="#0D0C0B"/><rect x="290" y="210" width="10" height="10" fill="#0D0C0B"/><rect x="310" y="210" width="10" height="10" fill="#0D0C0B"/><rect x="330" y="210" width="10" height="10" fill="#0D0C0B"/><rect x="350" y="210" width="10" height="10" fill="#0D0C0B"/><rect x="370" y="210" width="10" height="10" fill="#0D0C0B"/><rect x="390" y="210" width="10" height="10" fill="#0D0C0B"/><rect x="410" y="210" width="10" height="10" fill="#0D0C0B"/><rect x="430" y="210" width="10" height="10" fill="#0D0C0B"/><rect x="450" y="210" width="10" height="10" fill="#0D0C0B"/><rect x="470" y="210" width="10" height="10" fill="#0D0C0B"/><rect x="490" y="210" width="10" height="10" fill="#0D0C0B"/><rect x="280" y="220" width="10" height="10" fill="#0D0C0B"/><rect x="300" y="220" width="10" height="10" fill="#0D0C0B"/><rect x="320" y="220" width="10" height="10" fill="#0D0C0B"/><rect x="340" y="220" width="10" height="10" fill="#0D0C0B"/><rect x="360" y="220" width="10" height="10" fill="#0D0C0B"/><rect x="380" y="220" width="10" height="10" fill="#0D0C0B"/><rect x="400" y="220" width="10" height="10" fill="#0D0C0B"/><rect x="420" y="220" width="10" height="10" fill="#0D0C0B"/><rect x="440" y="220" width="10" height="10" fill="#0D0C0B"/><rect x="460" y="220" width="10" height="10" fill="#0D0C0B"/><rect x="480" y="220" width="10" height="10" fill="#0D0C0B"/><rect x="290" y="230" width="10" height="10" fill="#0D0C0B"/><rect x="310" y="230" width="10" height="10" fill="#0D0C0B"/><rect x="330" y="230" width="10" height="10" fill="#0D0C0B"/><rect x="350" y="230" width="10" height="10" fill="#0D0C0B"/><rect x="370" y="230" width="10" height="10" fill="#0D0C0B"/><rect x="390" y="230" width="10" height="10" fill="#0D0C0B"/><rect x="410" y="230" width="10" height="10" fill="#0D0C0B"/><rect x="430" y="230" width="10" height="10" fill="#0D0C0B"/><rect x="450" y="230" width="10" height="10" fill="#0D0C0B"/><rect x="470" y="230" width="10" height="10" fill="#0D0C0B"/><rect x="490" y="230" width="10" height="10" fill="#0D0C0B"/><rect x="280" y="240" width="10" height="10" fill="#0D0C0B"/><rect x="300" y="240" width="10" height="10" fill="#0D0C0B"/><rect x="320" y="240" width="10" height="10" fill="#0D0C0B"/><rect x="340" y="240" width="10" height="10" fill="#0D0C0B"/><rect x="360" y="240" width="10" height="10" fill="#0D0C0B"/><rect x="380" y="240" width="10" height="10" fill="#0D0C0B"/><rect x="400" y="240" width="10" height="10" fill="#0D0C0B"/><rect x="420" y="240" width="10" height="10" fill="#0D0C0B"/><rect x="440" y="240" width="10" height="10" fill="#0D0C0B"/><rect x="460" y="240" width="10" height="10" fill="#0D0C0B"/><rect x="480" y="240" width="10" height="10" fill="#0D0C0B"/><rect x="290" y="250" width="10" height="10" fill="#0D0C0B"/><rect x="310" y="250" width="10" height="10" fill="#0D0C0B"/><rect x="330" y="250" width="10" height="10" fill="#0D0C0B"/><rect x="350" y="250" width="10" height="10" fill="#0D0C0B"/><rect x="370" y="250" width="10" height="10" fill="#0D0C0B"/><rect x="390" y="250" width="10" height="10" fill="#0D0C0B"/><rect x="410" y="250" width="10" height="10" fill="#0D0C0B"/><rect x="430" y="250" width="10" height="10" fill="#0D0C0B"/><rect x="450" y="250" width="10" height="10" fill="#0D0C0B"/><rect x="470" y="250" width="10" height="10" fill="#0D0C0B"/><rect x="490" y="250" width="10" height="10" fill="#0D0C0B"/><rect x="300" y="260" width="10" height="10" fill="#0D0C0B"/><rect x="320" y="260" width="10" height="10" fill="#0D0C0B"/><rect x="340" y="260" width="10" height="10" fill="#0D0C0B"/><rect x="360" y="260" width="10" height="10" fill="#0D0C0B"/><rect x="380" y="260" width="10" height="10" fill="#0D0C0B"/><rect x="400" y="260" width="10" height="10" fill="#0D0C0B"/><rect x="420" y="260" width="10" height="10" fill="#0D0C0B"/><rect x="440" y="260" width="10" height="10" fill="#0D0C0B"/><rect x="460" y="260" width="10" height="10" fill="#0D0C0B"/><rect x="480" y="260" width="10" height="10" fill="#0D0C0B"/><rect x="310" y="270" width="10" height="10" fill="#0D0C0B"/><rect x="330" y="270" width="10" height="10" fill="#0D0C0B"/><rect x="350" y="270" width="10" height="10" fill="#0D0C0B"/><rect x="370" y="270" width="10" height="10" fill="#0D0C0B"/><rect x="390" y="270" width="10" height="10" fill="#0D0C0B"/><rect x="410" y="270" width="10" height="10" fill="#0D0C0B"/><rect x="430" y="270" width="10" height="10" fill="#0D0C0B"/><rect x="450" y="270" width="10" height="10" fill="#0D0C0B"/><rect x="470" y="270" width="10" height="10" fill="#0D0C0B"/><rect x="320" y="280" width="10" height="10" fill="#0D0C0B"/><rect x="340" y="280" width="10" height="10" fill="#0D0C0B"/><rect x="360" y="280" width="10" height="10" fill="#0D0C0B"/><rect x="380" y="280" width="10" height="10" fill="#0D0C0B"/><rect x="400" y="280" width="10" height="10" fill="#0D0C0B"/><rect x="420" y="280" width="10" height="10" fill="#0D0C0B"/><rect x="440" y="280" width="10" height="10" fill="#0D0C0B"/><rect x="460" y="280" width="10" height="10" fill="#0D0C0B"/><rect x="260" y="160" width="10" height="10" fill="#BCBAB5"/><rect x="260" y="170" width="10" height="10" fill="#BCBAB5"/><rect x="270" y="180" width="10" height="10" fill="#BCBAB5"/><rect x="270" y="190" width="10" height="10" fill="#BCBAB5"/><rect x="270" y="200" width="10" height="10" fill="#BCBAB5"/><rect x="270" y="210" width="10" height="10" fill="#BCBAB5"/><rect x="280" y="220" width="10" height="10" fill="#BCBAB5"/><rect x="280" y="230" width="10" height="10" fill="#BCBAB5"/><rect x="280" y="240" width="10" height="10" fill="#BCBAB5"/>
<animate attributeName="opacity" from="0" to="1" begin="1.7s" dur="1.1s" fill="freeze"/></g>
</svg>